<?xml version="1.0" standalone="no"?>
<!DOCTYPE svg PUBLIC "-//W3C//DTD SVG 20010904//EN"
 "http://www.w3.org/TR/2001/REC-SVG-20010904/DTD/svg10.dtd">
<svg version="1.0" xmlns="http://www.w3.org/2000/svg"
 width="1024.000000pt" height="1024.000000pt" viewBox="0 0 1024.000000 1024.000000"
 preserveAspectRatio="xMidYMid meet">
<metadata>
Created by potrace 1.11, written by Peter Selinger 2001-2013
</metadata>
<g transform="translate(0.000000,1024.000000) scale(0.100000,-0.100000)"
fill="#000000" stroke="none">
<path d="M5045 8489 c-76 -8 -219 -57 -290 -100 -30 -18 -138 -101 -238 -184
-101 -82 -203 -166 -227 -185 -23 -19 -47 -39 -54 -45 -6 -5 -34 -28 -61 -50
-28 -22 -61 -50 -75 -61 -14 -12 -119 -99 -235 -194 -115 -94 -221 -182 -235
-193 -14 -12 -72 -60 -130 -107 -58 -47 -321 -263 -585 -481 -264 -217 -507
-417 -541 -444 -84 -69 -358 -294 -539 -443 -82 -68 -159 -131 -170 -141 -28
-22 -125 -102 -150 -123 -11 -9 -141 -116 -290 -238 -357 -292 -355 -291 -382
-320 -64 -69 -62 -184 4 -255 10 -11 101 -122 201 -247 101 -125 195 -236 210
-247 63 -44 150 -46 199 -4 11 10 92 77 179 148 87 72 199 164 248 205 50 41
181 149 291 240 110 90 202 167 205 170 5 5 93 78 130 107 25 20 163 134 190
157 14 11 102 84 195 160 94 77 186 154 206 170 19 17 55 47 80 67 24 20 116
96 204 169 88 72 178 146 200 164 22 19 137 113 255 211 118 98 235 194 259
214 25 20 58 48 75 62 17 14 141 117 276 228 135 111 254 210 265 219 162 137
302 246 331 258 50 21 133 20 183 -3 22 -10 140 -101 263 -203 123 -101 286
-236 363 -300 77 -64 322 -266 545 -450 223 -184 470 -388 550 -454 162 -134
291 -240 520 -430 85 -70 164 -135 175 -144 11 -10 83 -69 160 -132 77 -63
149 -123 160 -132 11 -9 106 -87 210 -173 105 -87 210 -174 235 -195 169 -141
402 -331 422 -344 40 -26 111 -27 155 -2 33 19 159 165 338 392 17 21 54 67
82 102 63 76 76 116 62 182 -17 80 -15 78 -404 389 -66 53 -122 98 -125 101
-6 7 -287 235 -339 275 -21 17 -58 46 -82 66 -24 20 -117 96 -206 168 l-163
132 0 1057 c0 663 -4 1070 -10 1092 -12 43 -62 94 -110 113 -28 11 -126 13
-495 12 -498 -1 -490 0 -541 -57 -50 -54 -48 -38 -49 -641 0 -312 -4 -567 -8
-568 -9 -1 -37 21 -207 162 -63 52 -265 219 -449 370 -184 151 -418 343 -520
427 -264 217 -309 245 -446 282 -78 22 -179 29 -270 19z"/>
<path d="M5067 6765 c-26 -6 -55 -19 -65 -27 -9 -8 -28 -24 -42 -36 -14 -11
-54 -44 -90 -74 -36 -30 -117 -97 -180 -149 -63 -52 -167 -138 -230 -190 -63
-52 -297 -246 -520 -430 -605 -499 -711 -587 -755 -624 -22 -18 -175 -144
-340 -280 -308 -254 -443 -367 -529 -439 -27 -22 -55 -45 -62 -51 -11 -8 -13
-233 -11 -1280 2 -1199 3 -1272 20 -1306 24 -48 72 -96 116 -117 33 -15 121
-16 941 -17 l905 0 40 22 c64 34 105 77 125 132 19 48 20 84 20 811 0 740 1
762 21 815 26 69 81 119 151 136 70 16 1041 15 1112 -2 35 -8 61 -24 91 -54
77 -76 74 -40 75 -903 l0 -767 26 -52 c31 -65 93 -120 148 -131 42 -9 1799 -9
1826 0 69 23 115 62 146 125 18 37 19 84 22 1308 l2 1270 -142 117 c-79 65
-155 128 -170 140 -33 29 -51 43 -113 93 -27 22 -52 43 -55 46 -3 3 -108 90
-235 194 -126 104 -232 192 -235 195 -3 3 -41 34 -85 70 -44 36 -91 75 -105
86 -14 12 -54 46 -90 75 -313 259 -599 495 -620 513 -14 11 -115 95 -225 186
-110 91 -209 172 -220 181 -329 273 -479 394 -505 406 -38 18 -109 22 -163 8z"/>
</g>
</svg>
